# xmcd
#
# Track frame offsets:
#	150
#	21695
#	41832
#	66967
#	89197
#	109875
#	129742
#	153042
#	173940
#	191790
#
# Disc length: 2872 seconds
# Revision: 0
# Processed by: cddbd v1.5.2PL0 Copyright (c) Steve Scherf et al.
# Submitted via: dBpowerAMP V12.0
#
DISCID=970b360a
DTITLE=Various Artist - Dem buon tinh le
DYEAR=1993
DGENRE=Bolero
TTITLE0=Tuan Vu and Phuong Mai - Hoa su nha nang
TTITLE1=Tuan Vu and Giao Linh - Duong tinh doi nga
TTITLE2=Tuan Vu and Thien Trang - Sau tim thiep hong
TTITLE3=Tuan Vu and Thanh Tuyen - Roi ngay mai xa nhau
TTITLE4=Tuan Vu and Huong Lan - Doi mat nguoi xua
TTITLE5=Tuan Vu and Phuong Mai - Dem buon tinh le
TTITLE6=Tuan Vu and Giao Linh - Thoang giac mo qua
TTITLE7=Tuan Vu and Thien Trang - Ngay cuoi em
TTITLE8=Tuan Vu and Thanh Tuyen - Neu anh la linh
TTITLE9=Tuan Vu and Huong Lan - Gap nhau
EXTD=
EXTT0=
EXTT1=
EXTT2=
EXTT3=
EXTT4=
EXTT5=
EXTT6=
EXTT7=
EXTT8=
EXTT9=
PLAYORDER=
